<svg width="24" height="23" viewBox="0 0 24 23" fill="none" xmlns="http://www.w3.org/2000/svg">
<g clip-path="url(#clip0_59_203)">
<path d="M24 11.5C24 5.14878 18.6274 0 12 0C5.37264 0 0 5.14878 0 11.5C0 16.893 3.87456 21.4185 9.10128 22.6614V15.0144H6.62688V11.5H9.10128V9.98568C9.10128 6.07154 10.9498 4.2573 14.9597 4.2573C15.72 4.2573 17.0318 4.40036 17.5685 4.54296V7.72846C17.2853 7.69994 16.7933 7.68568 16.1822 7.68568C14.2147 7.68568 13.4544 8.40006 13.4544 10.2571V11.5H17.3741L16.7006 15.0144H13.4544V22.9158C19.3963 22.2281 24.0005 17.3797 24.0005 11.5H24Z" fill="#E22525"/>
<path d="M16.7002 15.0144L17.3737 11.5H13.454V10.2571C13.454 8.40008 14.2143 7.6857 16.1818 7.6857C16.7929 7.6857 17.2849 7.69996 17.5681 7.72848V4.54298C17.0314 4.39992 15.7196 4.25732 14.9593 4.25732C10.9493 4.25732 9.10087 6.07156 9.10087 9.9857V11.5H6.62646V15.0144H9.10087V22.6615C10.0292 22.8823 11.0002 23 11.9996 23C12.4916 23 12.9769 22.971 13.4535 22.9158V15.0144H16.6997H16.7002Z" fill="white"/>
</g>
<defs>
<clipPath id="clip0_59_203">
<rect width="24" height="23" fill="white"/>
</clipPath>
</defs>
</svg>
