<svg width="24" height="22" viewBox="0 0 24 22" fill="none" xmlns="http://www.w3.org/2000/svg">
<g clip-path="url(#clip0_63_178)">
<path d="M12 1.98086C15.2063 1.98086 15.5859 1.99375 16.8469 2.04531C18.0188 2.09258 18.6516 2.27305 19.0734 2.42344C19.6313 2.62109 20.0344 2.86172 20.4516 3.24414C20.8734 3.63086 21.1313 3.99609 21.3469 4.50742C21.5109 4.89414 21.7078 5.47852 21.7594 6.54844C21.8156 7.70859 21.8297 8.05664 21.8297 10.9914C21.8297 13.9305 21.8156 14.2785 21.7594 15.4344C21.7078 16.5086 21.5109 17.0887 21.3469 17.4754C21.1313 17.9867 20.8687 18.3563 20.4516 18.7387C20.0297 19.1254 19.6313 19.3617 19.0734 19.5594C18.6516 19.7098 18.0141 19.8902 16.8469 19.9375C15.5813 19.9891 15.2016 20.002 12 20.002C8.79375 20.002 8.41406 19.9891 7.15313 19.9375C5.98125 19.8902 5.34844 19.7098 4.92656 19.5594C4.36875 19.3617 3.96563 19.1211 3.54844 18.7387C3.12656 18.352 2.86875 17.9867 2.65313 17.4754C2.48906 17.0887 2.29219 16.5043 2.24063 15.4344C2.18438 14.2742 2.17031 13.9262 2.17031 10.9914C2.17031 8.05234 2.18438 7.7043 2.24063 6.54844C2.29219 5.47422 2.48906 4.89414 2.65313 4.50742C2.86875 3.99609 3.13125 3.62656 3.54844 3.24414C3.97031 2.85742 4.36875 2.62109 4.92656 2.42344C5.34844 2.27305 5.98594 2.09258 7.15313 2.04531C8.41406 1.99375 8.79375 1.98086 12 1.98086ZM12 0C8.74219 0 8.33438 0.0128906 7.05469 0.0644531C5.77969 0.116016 4.90313 0.305078 4.14375 0.575781C3.35156 0.859375 2.68125 1.2332 2.01563 1.84766C1.34531 2.45781 0.9375 3.07227 0.628125 3.79414C0.332812 4.49453 0.126563 5.29375 0.0703125 6.4625C0.0140625 7.63984 0 8.01367 0 11C0 13.9863 0.0140625 14.3602 0.0703125 15.5332C0.126563 16.702 0.332812 17.5055 0.628125 18.2016C0.9375 18.9277 1.34531 19.5422 2.01563 20.1523C2.68125 20.7625 3.35156 21.1406 4.13906 21.4199C4.90313 21.6906 5.775 21.8797 7.05 21.9312C8.32969 21.9828 8.7375 21.9957 11.9953 21.9957C15.2531 21.9957 15.6609 21.9828 16.9406 21.9312C18.2156 21.8797 19.0922 21.6906 19.8516 21.4199C20.6391 21.1406 21.3094 20.7625 21.975 20.1523C22.6406 19.5422 23.0531 18.9277 23.3578 18.2059C23.6531 17.5055 23.8594 16.7063 23.9156 15.5375C23.9719 14.3645 23.9859 13.9906 23.9859 11.0043C23.9859 8.01797 23.9719 7.64414 23.9156 6.47109C23.8594 5.30234 23.6531 4.49883 23.3578 3.80273C23.0625 3.07227 22.6547 2.45781 21.9844 1.84766C21.3188 1.2375 20.6484 0.859375 19.8609 0.580078C19.0969 0.309375 18.225 0.120313 16.95 0.06875C15.6656 0.0128906 15.2578 0 12 0Z" fill="#EC2121"/>
<path d="M12 5.34961C8.59688 5.34961 5.83594 7.88047 5.83594 11C5.83594 14.1195 8.59688 16.6504 12 16.6504C15.4031 16.6504 18.1641 14.1195 18.1641 11C18.1641 7.88047 15.4031 5.34961 12 5.34961ZM12 14.6652C9.79219 14.6652 8.00156 13.0238 8.00156 11C8.00156 8.97617 9.79219 7.33477 12 7.33477C14.2078 7.33477 15.9984 8.97617 15.9984 11C15.9984 13.0238 14.2078 14.6652 12 14.6652Z" fill="#EC2121"/>
<path d="M19.8469 5.12615C19.8469 5.85662 19.2 6.44529 18.4078 6.44529C17.6109 6.44529 16.9688 5.85232 16.9688 5.12615C16.9688 4.39568 17.6156 3.80701 18.4078 3.80701C19.2 3.80701 19.8469 4.39998 19.8469 5.12615Z" fill="#EC2121"/>
</g>
<defs>
<clipPath id="clip0_63_178">
<rect width="24" height="22" fill="white"/>
</clipPath>
</defs>
</svg>
